<?xml version="1.0" encoding="utf-8"?>
<!-- Generator: Adobe Illustrator 28.0.0, SVG Export Plug-In . SVG Version: 6.00 Build 0)  -->
<svg version="1.1" id="图层_1" xmlns="http://www.w3.org/2000/svg" xmlns:xlink="http://www.w3.org/1999/xlink" x="0px" y="0px"
	 viewBox="0 0 200 200" style="enable-background:new 0 0 200 200;" xml:space="preserve">
<style type="text/css">
	.st0{display:none;}
	.st1{fill:#F35D18;}
</style>
<path class="st0" d="M47.6,122.1c0.1-0.1-0.2-0.6,0.2-0.1c1.4,1.8,2.8,2,3.7,3.1c3,2.4,5.9,4.9,8.8,7.8c0.5,0,1,0.1,1.4-0.2
	c0-0.4,0.3-0.5,0.4-1.4c-0.4-0.1,0-0.6-0.5-0.5c-4.2-3-8.6-5.6-13.4-8.7"/>
<path d="M81.9,133.2h7c0.4-0.2,0.1,0.3,0.1,0.5c-3.4,4.4-6.6,8.9-10.2,13.5c3.4,4.4,6,9.3,8.7,15.3c0,0.3,0,0.2-0.1,0.7
	c-4.5,1.1-7-1.3-8-3.7c-1.5-2.5-2.6-5.4-4.4-7.2c-1.7,2.5-3.6,4.8-5.5,7.4c-1,1.2-1.5,2.5-3.2,3.5h-6.4c-0.1-0.1-0.6,0.2-0.4-0.4
	c4-5.3,8-10.6,12.1-16.1c-0.2-1.5-2.6-2.5-1.4-4.9c0.8-1.7,3.5-1.6,4.7,0.5c0.2,0.2,0.4-0.2,0.4-0.2S79.8,136.1,81.9,133.2z"/>
<path d="M106.4,132.5c3.3-0.4,7.6,1.2,9,2.7c1.4,1.1,2.5,2.6,3.3,4.4c1.8,3.8,1.5,7.8,1.5,11.9c-0.1,3.9,0.1,7.9-0.1,11.7
	c-3.2-0.2-4.8-0.7-6.1-3.6c-0.6-4.8-0.1-9.5-0.2-14.4c-0.6-4.3-1.9-5.6-5.2-6.8c-2.3-0.8-6-0.1-7.1,1.4c-2.8,1.7-2.2,7.2-2.2,11
	c-0.1,4,0.1,8.1-0.4,12.3c-1.9-0.5-4.1-0.2-6-0.2c0-9.8,0-19.7,0.1-29.6c1.5-0.2,3.5,0,5.4-0.1c0.4,0.6,0.1,1.9,0.5,2.7
	C100.2,134.4,102.5,132.9,106.4,132.5L106.4,132.5z"/>
<path d="M139.5,138.9L139.5,138.9C139.4,138.9,139.4,138.9,139.5,138.9z"/>
<path d="M151,141.5c-2.1-3.8-2.9-5.4-8.6-6.5c-2.2-0.5-4.9,0.2-6.8,1.3c-1.4,0.7-2.8,1.7-3.9,2.9c0,0-0.4,0-0.4,0.2
	c0-5.6-0.4-11.3-0.2-17.2c-0.1-0.2,0.2-0.4-0.4-0.6c-3.1,0.3-6.1,0.2-9.4,0.5c0,0.5,0,0.9-0.2,1.6c1.4,0.6,3.7,0.6,4.1,2.5
	c0.2,12.2,0,24.5,0.1,36.9c0.8,0.1,1.6,0.5,2.6,0.5c0.4-0.6,1.2-0.8,1.8-1.6c1.1,0,2.8,1.2,4.4,1.2c5.2,1.3,12.4-0.3,14.3-3.1
	c1.7-1.3,3.6-5.4,3.6-9.6C152.1,147.6,152.1,144.7,151,141.5L151,141.5L151,141.5z M144.1,158.5c-0.8,1.4-3.5,2.8-6.7,2.4
	c-4.2-0.7-5.5-2.1-5.9-6.4c0.2-3.9-1.2-10.3,1.6-12.9c1.5-1.2,2.9-2.7,6.4-2.6c0,0,0.1,0,0.2-0.1c4.7,0.3,5.6,3.3,6.5,8
	C146.6,149.8,146.7,154.9,144.1,158.5L144.1,158.5z"/>
<circle class="st1" cx="64.3" cy="134.7" r="1.7"/>
<circle class="st1" cx="68.1" cy="138.3" r="2"/>
<circle class="st1" cx="60.9" cy="131.7" r="1.2"/>
<path class="st1" d="M47.6,121.8c0,0,12.5,7.6,13.9,8.9c1.4,1.3-0.7,2.7-1.6,1.8C59,131.5,47.6,121.8,47.6,121.8z"/>
</svg>
