<?xml version="1.0" encoding="UTF-8"?>
<svg id="_图层_1" data-name="图层 1" xmlns="http://www.w3.org/2000/svg" viewBox="0 0 72.74 69.67">
    <circle cx="33.79" cy="34.06" r="33.45" style="fill: #018837; stroke-width: 0px;"/>
    <g>
        <path d="m15.9,4.25h0s-2.17-3.62-2.2-3.59c-4.46,3.81-7.38,8.95-8.52,14.47-.06.28.12.59.39.68,5.35,1.78,11.26,1.81,16.79-.15.04-.01-2.01-3.7-2.01-3.7l-4.45-7.7Z"
              style="fill: #ff0001; stroke-width: 0px;"/>
        <path d="m62.81,17.33C53.34.93,32.66-4.85,16.61,4.42c-.15.09-.3.18-.45.28l3.78,6.55c.15-.09.3-.19.45-.28,14.05-8.11,32.04-3.44,40.89,10.35.74-.86,1.52-1.68,2.37-2.43-.27-.52-.54-1.05-.84-1.56Z"
              style="fill: #ff0001; stroke-width: 0px;"/>
    </g>
    <g>
        <path d="m31.98,67.66c-1.14-5.52-4.06-10.65-8.52-14.47-.03-.02-2.2,3.59-2.2,3.59l-4.45,7.7h0s-2.05,3.69-2.01,3.7c5.53,1.96,11.44,1.92,16.79.15.27-.09.45-.4.39-.68Z"
              style="fill: #ff0001; stroke-width: 0px;"/>
        <path d="m17.07,64.04l3.78-6.55c-.15-.09-.31-.16-.46-.25C6.34,49.13,1.39,31.22,8.9,16.65c-1.11-.21-2.21-.48-3.29-.83-.32.5-.64.99-.93,1.51C-4.78,33.72.56,54.52,16.61,63.79c.15.09.31.17.46.25Z"
              style="fill: #ff0001; stroke-width: 0px;"/>
    </g>
    <g>
        <path d="m64.47,18.85c-.21-.19-.57-.19-.79,0-4.21,3.75-7.2,8.84-8.27,14.61,0,.04,4.21.11,4.21.11h8.9s4.22-.07,4.21-.11c-1.07-5.77-4.06-10.87-8.27-14.61Z"
              style="fill: #ff0001; stroke-width: 0px;"/>
        <path d="m60.44,33.58c0,.18.01.35.01.53,0,16.22-13.03,29.47-29.41,30.24.37,1.07.69,2.16.92,3.26.59.03,1.18.05,1.78.05,18.93,0,34.28-15.02,34.28-33.56,0-.18-.01-.35-.01-.53h-7.56Z"
              style="fill: #ff0001; stroke-width: 0px;"/>
    </g>
</svg>
