<svg xmlns="http://www.w3.org/2000/svg" viewBox="0 0 200 200" style="enable-background:new 0 0 200 200;"
     xml:space="preserve">
<path d="M67.1,78.9h9.6c1.1,0,1.8,1.3,1.2,2.2c-3.3,4.8-11.3,16.2-16.6,23c-0.4,0.5-0.4,1.1,0,1.6c5.4,7.4,12.9,22.5,14.9,27.4
	c0.3,0.8-0.2,1.7-1.1,1.9c-7.4,1.2-11.6-3-13.3-7.2c-2.4-4.1-4.3-8.7-7-12.1c-0.6-0.7-1.6-0.7-2.2,0.1c-3.3,4.6-8.7,11.6-9.2,12.3
	c0,0,0,0.1-0.1,0.1c-0.3,0.5-2.8,4.4-5.6,6.2c-0.2,0.1-0.5,0.2-0.7,0.2H25.5c-0.2-0.2-1.1,0.4-0.7-0.7c7.3-9.7,14.6-19.4,22.1-29.4
	c0.3-0.4,0.4-0.9,0.2-1.3c-0.9-2.4-4.4-4.3-2.4-8.4c1.3-2.8,5.5-3,7.9-0.2c0.5,0.6,1.5,0.6,2-0.1c2.5-3,8.2-10.8,11.4-15.2
	C66.3,79.1,66.7,78.9,67.1,78.9z"/>
    <path d="M128.8,82.6C128.8,82.6,128.8,82.6,128.8,82.6c8.4,7.7,8.3,11.4,8.9,30.3c-0.2,6.8,0.1,13.7-0.1,20.4c0,0.8-0.7,1.3-1.5,1.3
	c-5-0.5-7.7-1.6-9.9-6.6c-1.4-3.1-0.2-6.9-0.5-15.9c0-23.1-6-24.1-12.4-24c-6,0.1-14.2,0.3-14.4,23.6c-0.1,7.1,0.2,14.1-0.6,21.4
	c-0.1,0.7-0.8,1.3-1.5,1.2c-2.7-0.4-5.7-0.2-8.4-0.1c-0.8,0-1.4-0.6-1.4-1.3c0-17.4,0-35,0.2-52.5c0-0.7,0.5-1.3,1.2-1.3
	c2.3-0.1,5.1,0,7.9,0c0.7,0,1.3,0.5,1.4,1.1c0.1,0.4,0.1,0.8,0.1,1.2c0.1,1.1,1.3,1.6,2.1,1C110.5,74.8,123.6,78.4,128.8,82.6z"/>
    <path d="M195,94.4c-3.4-8-8.2-10.7-16-12.1c-3.4-0.6-9.1,0.4-12.7,2.4c-2.6,1.3-8,5.4-8,5.8c0-10.4-0.7-21-0.4-32
	c-0.2-0.4,0.4-0.7-0.7-1.1c-5.8,0.6-11.4,0.4-17.5,0.9c0,0.9,0,1.7-0.4,3c2.6,1.1,6.9,1.1,7.6,4.7c0.4,22.7,0,45.6,0.2,68.7
	c1.1,0.7,3,0.9,4.8,0.9c0.7-0.3,2.2-1.5,3.3-3c2.2,0.7,5.1,1.6,8.2,2.2c9.7,2.4,22.9-1.4,26.8-5.8c2.5-2.9,6.5-10,6.5-17.8
	C197.1,105.7,197.1,100.3,195,94.4L195,94.4L195,94.4z M169.7,130.5c-7.8-1.3-10.2-3.9-11-11.9c-1-17.4-0.3-28.4,15.3-29
	c8.7,0.6,10.4,6.1,12.1,14.9C190,130.3,175.7,131.2,169.7,130.5z"/>
    <circle fill="#F35D18" cx="33.7" cy="81.7" r="3.2"/>
    <circle fill="#F35D18" cx="40.8" cy="88.4" r="3.7"/>
    <path fill="#F35D18" d="M25.9,77.8c0.4,0.3,0.9,0.6,1.5,0.6c1.2,0,2.2-1,2.2-2.2c0-0.7-0.3-1.2-0.8-1.6L3,57.9"/>
</svg>
